{
  "asset": {
    "version": "2.0",
    "generator": "THREE.GLTFExporter"
  },
  "scenes": [
    {
      "name": "Scene",
      "nodes": [
        0,
        1,
        2
      ]
    }
  ],
  "scene": 0,
  "nodes": [
    {
      "matrix": [
        1,
        0,
        0,
        0,
        0,
        2.4276590495107793,
        0,
        0,
        0,
        0,
        1,
        0,
        0,
        1.174195817586154,
        0,
        1
      ],
      "name": "Cylinder",
      "mesh": 0
    },
    {
      "matrix": [
        1,
        0,
        0,
        0,
        0,
        1,
        0,
        0,
        0,
        0,
        1,
        0,
        0,
        2.7965980575629397,
        0,
        1
      ],
      "name": "Sphere",
      "mesh": 1
    },
    {
      "matrix": [
        1,
        0,
        0,
        0,
        0,
        1,
        0,
        0,
        0,
        0,
        1,
        0,
        0,
        2.4380062675123,
        -0.029755535831119673,
        1
      ],
      "name": "PointLight",
      "extensions": {
        "KHR_lights_punctual": {
          "light": 0
        }
      }
    }
  ],
  "bufferViews": [
    {
      "buffer": 0,
      "byteOffset": 0,
      "byteLength": 420,
      "target": 34962,
      "byteStride": 12
    },
    {
      "buffer": 0,
      "byteOffset": 420,
      "byteLength": 420,
      "target": 34962,
      "byteStride": 12
    },
    {
      "buffer": 0,
      "byteOffset": 840,
      "byteLength": 280,
      "target": 34962,
      "byteStride": 8
    },
    {
      "buffer": 0,
      "byteOffset": 1120,
      "byteLength": 144,
      "target": 34963
    },
    {
      "buffer": 0,
      "byteOffset": 1264,
      "byteLength": 6732,
      "target": 34962,
      "byteStride": 12
    },
    {
      "buffer": 0,
      "byteOffset": 7996,
      "byteLength": 6732,
      "target": 34962,
      "byteStride": 12
    },
    {
      "buffer": 0,
      "byteOffset": 14728,
      "byteLength": 4488,
      "target": 34962,
      "byteStride": 8
    },
    {
      "buffer": 0,
      "byteOffset": 19216,
      "byteLength": 5760,
      "target": 34963
    }
  ],
  "buffers": [
    {
      "byteLength": 24976,
      "uri": "data:application/octet-stream;base64,"
    }
  ],
  "accessors": [
    {
      "bufferView": 0,
      "componentType": 5126,
      "count": 35,
      "max": [
        0.30000001192092896,
        0.5,
        0.30000001192092896
      ],
      "min": [
        -0.30000001192092896,
        -0.5,
        -0.30000001192092896
      ],
      "type": "VEC3"
    },
    {
      "bufferView": 1,
      "componentType": 5126,
      "count": 35,
      "max": [
        0.9578262567520142,
        1,
        0.9578262567520142
      ],
      "min": [
        -0.9578262567520142,
        -0.2873478829860687,
        -0.9578262567520142
      ],
      "type": "VEC3"
    },
    {
      "bufferView": 2,
      "componentType": 5126,
      "count": 35,
      "max": [
        1,
        1
      ],
      "min": [
        0,
        0
      ],
      "type": "VEC2"
    },
    {
      "bufferView": 3,
      "componentType": 5123,
      "count": 72,
      "max": [
        34
      ],
      "min": [
        0
      ],
      "type": "SCALAR"
    },
    {
      "bufferView": 4,
      "componentType": 5126,
      "count": 561,
      "max": [
        0.30000001192092896,
        0.30000001192092896,
        0.30000001192092896
      ],
      "min": [
        -0.30000001192092896,
        -0.30000001192092896,
        -0.30000001192092896
      ],
      "type": "VEC3"
    },
    {
      "bufferView": 5,
      "componentType": 5126,
      "count": 561,
      "max": [
        1,
        1,
        1
      ],
      "min": [
        -1,
        -1,
        -1
      ],
      "type": "VEC3"
    },
    {
      "bufferView": 6,
      "componentType": 5126,
      "count": 561,
      "max": [
        1.015625,
        1
      ],
      "min": [
        -0.015625,
        0
      ],
      "type": "VEC2"
    },
    {
      "bufferView": 7,
      "componentType": 5123,
      "count": 2880,
      "max": [
        560
      ],
      "min": [
        0
      ],
      "type": "SCALAR"
    }
  ],
  "materials": [
    {
      "pbrMetallicRoughness": {
        "baseColorFactor": [
          1,
          0.38823529411764707,
          0.2784313725490196,
          1
        ],
        "metallicFactor": 0,
        "roughnessFactor": 1
      },
      "emissiveFactor": [
        1,
        0.38823529411764707,
        0.2784313725490196
      ]
    },
    {
      "pbrMetallicRoughness": {
        "baseColorFactor": [
          1,
          0.38823529411764707,
          0.2784313725490196,
          1
        ],
        "metallicFactor": 0,
        "roughnessFactor": 1
      },
      "emissiveFactor": [
        1,
        0.38823529411764707,
        0.2784313725490196
      ]
    }
  ],
  "meshes": [
    {
      "primitives": [
        {
          "mode": 4,
          "attributes": {
            "POSITION": 0,
            "NORMAL": 1,
            "TEXCOORD_0": 2
          },
          "indices": 3,
          "material": 0
        }
      ]
    },
    {
      "primitives": [
        {
          "mode": 4,
          "attributes": {
            "POSITION": 4,
            "NORMAL": 5,
            "TEXCOORD_0": 6
          },
          "indices": 7,
          "material": 1
        }
      ]
    }
  ],
  "extensions": {
    "KHR_lights_punctual": {
      "lights": [
        {
          "name": "PointLight",
          "color": [
            1,
            1,
            1
          ],
          "intensity": 1,
          "type": "point"
        }
      ]
    }
  },
  "extensionsUsed": [
    "KHR_lights_punctual"
  ]
}